<svg width="33" height="51" viewBox="0 0 33 51" fill="none" xmlns="http://www.w3.org/2000/svg">
<g clip-path="url(#clip0)">
<path d="M16.5 29.7782C18.7958 29.7782 20.657 28.086 20.657 25.9985C20.657 23.911 18.7958 22.2188 16.5 22.2188C14.2042 22.2188 12.343 23.911 12.343 25.9985C12.343 28.086 14.2042 29.7782 16.5 29.7782Z" fill="#F1F5FC"/>
<path d="M9.70747 22.5024C8.11835 25.2299 7.8847 28.5211 9.07578 31.3957C9.39999 32.1786 9.82391 32.929 10.2699 33.6664C10.4586 33.9782 10.6535 34.353 10.4655 34.6648C10.3407 34.872 10.0735 34.9888 9.80869 35.0336C9.06284 35.1603 8.32308 34.8204 7.69748 34.4486C6.80094 33.9153 5.97974 33.2878 5.25749 32.5845C4.93251 32.2682 4.62808 31.9374 4.33203 31.6005C4.09305 31.3289 3.85788 31.0505 3.71099 30.7341C3.39895 30.0604 3.52453 29.3025 3.65543 28.5855C3.72545 28.2024 3.79623 27.817 3.95606 27.4543C4.11664 27.0917 4.36247 26.7624 4.60677 26.4362C5.38459 25.3968 6.18523 24.3354 7.3276 23.5858C7.97146 23.1633 8.70437 22.8545 9.4312 22.548" fill="#5B5359"/>
<g opacity="0.31">
<path opacity="0.31" d="M9.70747 22.5024C8.11835 25.2299 7.8847 28.5211 9.07578 31.3957C9.39999 32.1786 9.82391 32.929 10.2699 33.6664C10.4586 33.9782 10.6535 34.353 10.4655 34.6648C10.3407 34.872 10.0735 34.9888 9.80869 35.0336C9.06284 35.1603 8.32308 34.8204 7.69748 34.4486C6.80094 33.9153 5.97974 33.2878 5.25749 32.5845C4.93251 32.2682 4.62808 31.9374 4.33203 31.6005C4.09305 31.3289 3.85788 31.0505 3.71099 30.7341C3.39895 30.0604 3.52453 29.3025 3.65543 28.5855C3.72545 28.2024 3.79623 27.817 3.95606 27.4543C4.11664 27.0917 4.36247 26.7624 4.60677 26.4362C5.38459 25.3968 6.18523 24.3354 7.3276 23.5858C7.97146 23.1633 8.70437 22.8545 9.4312 22.548" fill="url(#paint0_linear)"/>
</g>
<path d="M14.5887 0.206361C15.1975 1.89367 14.6351 3.76078 13.5848 5.27814C12.5345 6.7955 11.036 8.0367 9.60137 9.29839C7.60964 11.0509 5.70773 12.8786 3.90399 14.7761C2.94581 15.7836 2.00817 16.8207 1.34451 17.9913C-0.744623 21.6747 -0.415841 26.3816 2.41382 29.8032C2.84458 30.3237 3.21523 30.9739 3.93976 31.1112C3.86137 30.0794 3.78679 29.0172 4.16961 28.037C4.47784 27.2472 5.06539 26.5622 5.68718 25.9241C9.88144 21.6163 15.8383 18.9238 20.8896 15.3648C22.2382 14.4149 23.5449 13.3801 24.4377 12.0903C25.3296 10.8013 25.7695 9.21493 25.2825 7.77344C25.0069 6.95862 24.4567 6.23408 23.8532 5.56416C21.4977 2.95278 18.1984 0.981732 14.5331 0" fill="#53A6D6"/>
<path d="M23.2926 28.4976C24.8817 25.7701 25.1153 22.479 23.9242 19.6043C23.6 18.8214 23.1761 18.071 22.7301 17.3336C22.5414 17.0218 22.3465 16.647 22.5345 16.3352C22.6593 16.1281 22.9265 16.0112 23.1913 15.9665C23.9372 15.8398 24.6769 16.1797 25.3025 16.5514C26.1991 17.0848 27.0203 17.7122 27.7425 18.4155C28.0675 18.7319 28.3719 19.0626 28.668 19.3995C28.907 19.6711 29.1421 19.9495 29.289 20.2659C29.6011 20.9396 29.4755 21.6975 29.3446 22.4145C29.2746 22.7976 29.2038 23.183 29.044 23.5457C28.8834 23.9083 28.6375 24.2376 28.3932 24.5638C27.6154 25.6032 26.8148 26.6646 25.6724 27.4142C25.0286 27.8368 24.2956 28.1456 23.5688 28.4521" fill="#5B5359"/>
<g opacity="0.26">
<path opacity="0.26" d="M23.2926 28.4976C24.8817 25.7701 25.1153 22.479 23.9242 19.6043C23.6 18.8214 23.1761 18.071 22.7301 17.3336C22.5414 17.0218 22.3465 16.647 22.5345 16.3352C22.6593 16.1281 22.9265 16.0112 23.1913 15.9665C23.9372 15.8398 24.6769 16.1797 25.3025 16.5514C26.1991 17.0848 27.0203 17.7122 27.7425 18.4155C28.0675 18.7319 28.3719 19.0626 28.668 19.3995C28.907 19.6711 29.1421 19.9495 29.289 20.2659C29.6011 20.9396 29.4755 21.6975 29.3446 22.4145C29.2746 22.7976 29.2038 23.183 29.044 23.5457C28.8834 23.9083 28.6375 24.2376 28.3932 24.5638C27.6154 25.6032 26.8148 26.6646 25.6724 27.4142C25.0286 27.8368 24.2956 28.1456 23.5688 28.4521" fill="url(#paint1_linear)"/>
</g>
<path d="M18.4088 50.7944C17.7999 49.1071 18.3624 47.24 19.4127 45.7226C20.4629 44.2052 21.9615 42.964 23.3961 41.7023C25.3878 39.9498 27.2897 38.1221 29.0935 36.2247C30.0517 35.2171 30.9893 34.18 31.6529 33.0094C33.7421 29.326 33.4133 24.6191 30.5844 21.1975C30.1536 20.677 29.783 20.0268 29.0585 19.8895C29.1368 20.9213 29.2114 21.9835 28.8286 22.9637C28.5204 23.7535 27.9328 24.4386 27.311 25.0766C23.1175 29.3837 17.1606 32.0762 12.1087 35.6352C10.76 36.585 9.45329 37.6199 8.56055 38.9096C7.66858 40.1986 7.22868 41.785 7.71577 43.2265C7.99127 44.0414 8.54153 44.7659 9.14506 45.4358C11.4998 48.0487 14.799 50.019 18.4644 51.0015" fill="#BB6AE0"/>
<g opacity="0.75">
<path opacity="0.38" d="M14.5887 0.206361C15.1975 1.89367 14.6351 3.76078 13.5848 5.27814C12.5345 6.7955 11.036 8.0367 9.60137 9.29839C7.60964 11.0509 5.70773 12.8786 3.90399 14.7761C2.94581 15.7836 2.00817 16.8207 1.34451 17.9913C-0.744623 21.6747 -0.415841 26.3816 2.41382 29.8032C2.84458 30.3237 3.21523 30.9739 3.93976 31.1112C3.86137 30.0794 3.78679 29.0172 4.16961 28.037C4.47784 27.2472 5.06539 26.5622 5.68718 25.9241C9.88144 21.6163 15.8383 18.9238 20.8896 15.3648C22.2382 14.4149 23.5449 13.3801 24.4377 12.0903C25.3296 10.8013 25.7695 9.21493 25.2825 7.77344C25.0069 6.95862 24.4567 6.23408 23.8532 5.56416C21.4977 2.95278 18.1984 0.981732 14.5331 0" fill="url(#paint2_linear)"/>
</g>
<g opacity="0.65">
<path opacity="0.29" d="M18.4088 50.7944C17.7999 49.1071 18.3624 47.24 19.4127 45.7226C20.4629 44.2052 21.9615 42.964 23.3961 41.7023C25.3878 39.9498 27.2897 38.1221 29.0935 36.2247C30.0517 35.2171 30.9893 34.18 31.6529 33.0094C33.7421 29.326 33.4133 24.6191 30.5844 21.1975C30.1536 20.677 29.783 20.0268 29.0585 19.8895C29.1368 20.9213 29.2114 21.9835 28.8286 22.9637C28.5204 23.7535 27.9328 24.4386 27.311 25.0766C23.1175 29.3837 17.1606 32.0762 12.1087 35.6352C10.76 36.585 9.45329 37.6199 8.56055 38.9096C7.66858 40.1986 7.22868 41.785 7.71577 43.2265C7.99127 44.0414 8.54153 44.7659 9.14506 45.4358C11.4998 48.0487 14.799 50.019 18.4644 51.0015" fill="url(#paint3_linear)"/>
</g>
</g>
<defs>
<linearGradient id="paint0_linear" x1="3.51601" y1="28.7814" x2="10.5418" y2="28.7814" gradientUnits="userSpaceOnUse">
<stop stop-color="#231F20"/>
<stop offset="0.0896" stop-color="#231F20" stop-opacity="0.9104"/>
<stop offset="1" stop-color="#231F20" stop-opacity="0"/>
</linearGradient>
<linearGradient id="paint1_linear" x1="22.4583" y1="22.219" x2="29.4841" y2="22.219" gradientUnits="userSpaceOnUse">
<stop stop-color="#231F20"/>
<stop offset="0.0896" stop-color="#231F20" stop-opacity="0.9104"/>
<stop offset="1" stop-color="#231F20" stop-opacity="0"/>
</linearGradient>
<linearGradient id="paint2_linear" x1="-0.00257934" y1="15.5558" x2="25.4833" y2="15.5558" gradientUnits="userSpaceOnUse">
<stop offset="0.348958" stop-color="#FDFDFE" stop-opacity="0"/>
<stop offset="1" stop-color="#FDFDFE"/>
</linearGradient>
<linearGradient id="paint3_linear" x1="7.5143" y1="35.4445" x2="33.0002" y2="35.4445" gradientUnits="userSpaceOnUse">
<stop offset="0.411458" stop-color="#FDFDFE" stop-opacity="0"/>
<stop offset="0.9104" stop-color="#FDFDFE" stop-opacity="0.9104"/>
<stop offset="1" stop-color="#FDFDFE"/>
</linearGradient>
<clipPath id="clip0">
<rect width="33" height="51" fill="white"/>
</clipPath>
</defs>
</svg>
