<svg width="111" height="121" viewBox="0 0 111 121" fill="none" xmlns="http://www.w3.org/2000/svg">
<g opacity="0.8">
<path d="M106.024 75.4809V109.668C106.024 112.941 103.352 115.622 100.091 115.622H10.9086C7.64752 115.622 4.97586 112.941 4.97586 109.668V75.4809C4.97586 72.2082 7.64752 69.527 10.9086 69.527H30.4293C33.6904 69.527 36.3621 72.2082 36.3621 75.4809V80.2825H74.6379V75.4809C74.6379 72.2082 77.3096 69.527 80.5707 69.527H99.3259C102.587 69.527 106.024 72.2082 106.024 75.4809Z" stroke="#F1F5FC" stroke-opacity="0.4" stroke-width="3" stroke-miterlimit="10"/>
<path d="M23.3483 54.1619V8.45079C23.3483 6.54553 24.8946 4.99365 26.7931 4.99365H83.4414C85.3399 4.99365 86.8862 6.54553 86.8862 8.45079V54.1619" stroke="#F1F5FC" stroke-opacity="0.4" stroke-width="3" stroke-miterlimit="10" stroke-linecap="round" stroke-dasharray="7.68 9"/>
<path d="M47.4621 39.181L62.7724 23.8159" stroke="#F1F5FC" stroke-opacity="0.4" stroke-width="3" stroke-miterlimit="10" stroke-linecap="round"/>
<path d="M62.7724 39.181L47.4621 23.8159" stroke="#F1F5FC" stroke-opacity="0.4" stroke-width="3" stroke-miterlimit="10" stroke-linecap="round"/>
<path d="M44.4 94.4952V99.4889C44.4 100.549 45.2574 101.41 46.3138 101.41H64.6862C65.7426 101.41 66.6 100.549 66.6 99.4889V94.4952" stroke="#F1F5FC" stroke-opacity="0.4" stroke-width="3" stroke-miterlimit="10" stroke-linecap="round"/>
<path d="M86.8862 38.0286L105.121 70.8023C106.024 72.6 106.024 72.7921 106.024 73.9444V109.668C106.024 112.941 103.352 115.622 100.091 115.622H10.9086C7.64752 115.622 4.97586 112.941 4.97586 109.668V73.9444C4.97586 72.9995 5.19786 72.1083 5.59593 71.317L5.8409 70.8637L23.3483 38.0286" stroke="#F1F5FC" stroke-opacity="0.4" stroke-width="3" stroke-miterlimit="10" stroke-linecap="round"/>
<path d="M15.6931 69.527V65.3016C15.6931 63.3963 17.2394 61.8445 19.1379 61.8445H91.8621C93.7606 61.8445 95.3069 63.3963 95.3069 65.3016V69.527" stroke="#F1F5FC" stroke-opacity="0.4" stroke-width="2" stroke-miterlimit="10"/>
<path d="M19.5207 61.8445V58.3873C19.5207 56.482 21.067 54.9302 22.9655 54.9302H88.0345C89.933 54.9302 91.4793 56.482 91.4793 58.3873V61.8445" stroke="#F1F5FC" stroke-opacity="0.4" stroke-width="2" stroke-miterlimit="10"/>
<path opacity="0.1" d="M106.024 75.4809V109.668C106.024 112.941 103.352 115.622 100.091 115.622H10.9086C7.64752 115.622 4.97586 112.941 4.97586 109.668V75.4809C4.97586 72.2082 7.64752 69.527 10.9086 69.527H30.4293C33.6904 69.527 36.3621 72.2082 36.3621 75.4809V80.2825H74.6379V75.4809C74.6379 72.2082 77.3096 69.527 80.5707 69.527H99.3259C102.587 69.527 106.024 72.2082 106.024 75.4809Z" fill="#F1F5FC" fill-opacity="0.4"/>
<path opacity="0.2" d="M106.024 73.9444V75.4809C106.024 72.2082 103.352 69.527 100.091 69.527H80.5707C77.3096 69.527 74.6379 72.2082 74.6379 75.4809V80.2825H36.3621V75.4809C36.3621 72.2082 33.6904 69.527 30.4293 69.527H10.9086C7.64752 69.527 4.97586 72.2082 4.97586 75.4809V73.9444C4.97586 72.9995 5.19786 72.1083 5.59593 71.317L5.8409 70.8637L23.3483 38.0286V54.9302H86.8862V38.0286L105.121 70.8023C106.024 72.6 106.024 72.7921 106.024 73.9444Z" fill="#F1F5FC" fill-opacity="0.4"/>
<path opacity="0.2" d="M95.3069 65.3016V69.527H80.5707C77.3096 69.527 74.6379 72.2082 74.6379 75.481V80.2826H36.3621V75.481C36.3621 72.2082 33.6904 69.527 30.4293 69.527H15.6931V65.3016C15.6931 63.3963 17.2394 61.8445 19.1379 61.8445H91.8621C93.7606 61.8445 95.3069 63.3963 95.3069 65.3016Z" fill="#F1F5FC" fill-opacity="0.4"/>
<path opacity="0.2" d="M91.4793 58.3873V61.8445H19.5207V58.3873C19.5207 56.482 21.067 54.9302 22.9655 54.9302H88.0345C89.933 54.9302 91.4793 56.482 91.4793 58.3873Z" fill="#F1F5FC" fill-opacity="0.4"/>
<path opacity="0.25" d="M86.8862 8.4508V54.9302H23.3483V8.4508C23.3483 6.54553 24.8946 4.99365 26.7931 4.99365H83.4414C85.3399 4.99365 86.8862 6.54553 86.8862 8.4508Z" fill="#F1F5FC" fill-opacity="0.4"/>
</g>
</svg>
